HIERARCHY
ROOT Hips
{
	OFFSET 0.00000 0.00000 0.00000
	CHANNELS 6 Xposition Yposition Zposition Zrotation Yrotation Xrotation 
	JOINT LHipJoint
	{
		OFFSET 0 0 0
		CHANNELS 3 Zrotation Yrotation Xrotation
		JOINT LeftUpLeg
		{
			OFFSET 1.53139 -1.83434 0.76626
			CHANNELS 3 Zrotation Yrotation Xrotation
			JOINT LeftLeg
			{
				OFFSET 2.56112 -7.03663 0.00000
				CHANNELS 3 Zrotation Yrotation Xrotation
				JOINT LeftFoot
				{
					OFFSET 2.59983 -7.14299 0.00000
					CHANNELS 3 Zrotation Yrotation Xrotation
					JOINT LeftToeBase
					{
						OFFSET 0.13742 -0.37757 2.00054
						CHANNELS 3 Zrotation Yrotation Xrotation
						End Site
						{
							OFFSET 0.00000 -0.00000 1.02897
						}
					}
				}
			}
		}
	}
	JOINT RHipJoint
	{
		OFFSET 0 0 0
		CHANNELS 3 Zrotation Yrotation Xrotation
		JOINT RightUpLeg
		{
			OFFSET -1.40122 -1.83435 0.76627
			CHANNELS 3 Zrotation Yrotation Xrotation
			JOINT RightLeg
			{
				OFFSET -2.54052 -6.98003 0.00000
				CHANNELS 3 Zrotation Yrotation Xrotation
				JOINT RightFoot
				{
					OFFSET -2.63179 -7.23079 0.00000
					CHANNELS 3 Zrotation Yrotation Xrotation
					JOINT RightToeBase
					{
						OFFSET -0.24131 -0.66299 2.03908
						CHANNELS 3 Zrotation Yrotation Xrotation
						End Site
						{
							OFFSET -0.00000 -0.00000 1.07391
						}
					}
				}
			}
		}
	}
	JOINT LowerBack
	{
		OFFSET 0 0 0
		CHANNELS 3 Zrotation Yrotation Xrotation
		JOINT Spine
		{
			OFFSET 0.01174 2.10302 -0.29778
			CHANNELS 3 Zrotation Yrotation Xrotation
			JOINT Spine1
			{
				OFFSET 0.00772 2.13227 -0.01247
				CHANNELS 3 Zrotation Yrotation Xrotation
				JOINT Neck
				{
					OFFSET 0 0 0
					CHANNELS 3 Zrotation Yrotation Xrotation
					JOINT Neck1
					{
						OFFSET -0.09219 1.60848 0.31481
						CHANNELS 3 Zrotation Yrotation Xrotation
						JOINT Head
						{
							OFFSET 0.13974 1.65456 -0.31134
							CHANNELS 3 Zrotation Yrotation Xrotation
							End Site
							{
								OFFSET 0.04742 1.69515 -0.14578
							}
						}
					}
				}
				JOINT LeftShoulder
				{
					OFFSET 0 0 0
					CHANNELS 3 Zrotation Yrotation Xrotation
					JOINT LeftArm
					{
						OFFSET 3.24909 1.02882 -0.23993
						CHANNELS 3 Zrotation Yrotation Xrotation
						JOINT LeftForeArm
						{
							OFFSET 5.32955 -0.00000 -0.00000
							CHANNELS 3 Zrotation Yrotation Xrotation
							JOINT LeftHand
							{
								OFFSET 3.69232 -0.00000 -0.00000
								CHANNELS 3 Zrotation Yrotation Xrotation
								JOINT LeftFingerBase
								{
									OFFSET 0 0 0
									CHANNELS 3 Zrotation Yrotation Xrotation
									JOINT LeftHandIndex1
									{
										OFFSET 0.53660 -0.00000 -0.00000
										CHANNELS 3 Zrotation Yrotation Xrotation
										End Site
										{
											OFFSET 0.43262 -0.00000 -0.00000
										}
									}
								}
								JOINT LThumb
								{
									OFFSET 0 0 0
									CHANNELS 3 Zrotation Yrotation Xrotation
									End Site
									{
										OFFSET 0.43922 -0.00000 0.43922
									}
								}
							}
						}
					}
				}
				JOINT RightShoulder
				{
					OFFSET 0 0 0
					CHANNELS 3 Zrotation Yrotation Xrotation
					JOINT RightArm
					{
						OFFSET -3.21387 0.93002 -0.34594
						CHANNELS 3 Zrotation Yrotation Xrotation
						JOINT RightForeArm
						{
							OFFSET -5.23431 -0.00000 0.00000
							CHANNELS 3 Zrotation Yrotation Xrotation
							JOINT RightHand
							{
								OFFSET -3.55301 -0.00000 -0.00000
								CHANNELS 3 Zrotation Yrotation Xrotation
								JOINT RightFingerBase
								{
									OFFSET 0 0 0
									CHANNELS 3 Zrotation Yrotation Xrotation
									JOINT RightHandIndex1
									{
										OFFSET -0.77252 -0.00000 -0.00000
										CHANNELS 3 Zrotation Yrotation Xrotation
										End Site
										{
											OFFSET -0.62283 -0.00000 -0.00000
										}
									}
								}
								JOINT RThumb
								{
									OFFSET 0 0 0
									CHANNELS 3 Zrotation Yrotation Xrotation
									End Site
									{
										OFFSET -0.63234 -0.00000 0.63234
									}
								}
							}
						}
					}
				}
			}
		}
	}
}
MOTION
Frames: 5
Frame Time: .0083333
-5.9555 17.5832 10.6645 -178.0070 23.8523 -177.2540 0.0000 0.0000 0.0000 -20.6578 -4.1204 -8.4890 2.6594 10.1221 29.3729 1.0906 -7.6500 -18.6672 0.0302 -1.1211 -3.0821 0.0000 0.0000 0.0000 23.1245 -8.5410 -16.2626 -4.3177 -12.5716 37.7852 -1.2507 10.8191 -20.2652 -0.3211 3.6426 -10.0732 -2.4090 1.3488 11.6304 1.1706 1.6046 0.1889 2.3169 0.9042 -6.4338 -11.1282 -7.5681 -15.9177 8.1748 -8.3875 35.3252 4.1609 -3.1075 16.2011 0.0000 -0.0000 0.0000 -87.4218 7.5307 9.2131 16.0708 -25.6166 -3.6765 -0.0000 -0.0000 9.2441 18.9607 26.4926 8.7131 -7.1250 0.0000 -0.0000 -12.2619 57.3471 -3.7460 0.0000 -0.0000 0.0000 86.0770 -4.8836 1.3815 -18.7571 29.1157 -4.9121 0.0000 0.0000 6.9659 -19.3130 6.8417 -2.3906 7.1250 -0.0000 -0.0000 5.4693 -22.7438 2.9425
-5.9253 17.5865 10.7148 -178.0710 23.1543 -177.1900 0.0000 0.0000 0.0000 -20.3675 -3.9635 -8.8092 2.6225 10.0573 29.1624 1.0272 -8.7221 -18.2059 0.0366 -1.2342 -3.3936 0.0000 0.0000 0.0000 23.1178 -9.3382 -17.3576 -4.5543 -12.8636 38.8600 -1.1432 11.3627 -19.5306 -0.5786 4.8710 -13.5410 -2.6897 1.2531 11.7351 1.1610 1.4399 0.2542 2.4929 0.8325 -6.4203 -10.9704 -7.5700 -15.9755 8.2280 -8.4734 35.1631 4.1289 -3.1210 16.1362 0.0000 0.0000 0.0000 -87.0890 7.1877 9.4047 15.9606 -25.4671 -3.6290 -0.0000 -0.0000 9.1708 19.1184 26.0281 8.6490 -7.1250 0.0000 -0.0000 -11.8534 56.9172 -3.4952 0.0000 0.0000 0.0000 86.4383 -4.6844 1.0453 -18.8147 29.1878 -4.9401 0.0000 0.0000 6.9164 -19.3539 6.8733 -2.4070 7.1250 -0.0000 -0.0000 5.4390 -22.7087 2.9305
-5.8945 17.5973 10.7625 -178.1600 22.5387 -177.1910 0.0000 0.0000 0.0000 -20.1219 -3.8798 -8.9977 2.5794 9.9808 28.9145 0.9098 -9.6553 -17.3157 0.0145 -0.7781 -2.1384 0.0000 0.0000 0.0000 23.0455 -10.0464 -18.4350 -4.8281 -13.1875 40.0745 -1.0816 11.6999 -19.1169 -1.0732 6.5855 -18.4929 -2.9875 1.2113 11.9217 1.1710 1.3430 0.2960 2.6867 0.7961 -6.4820 -11.0279 -7.6380 -15.9969 8.4320 -8.6309 35.0935 4.1957 -3.1672 16.1463 -0.0000 -0.0000 0.0000 -86.8528 6.8821 9.5197 15.8713 -25.3459 -3.5907 -0.0000 -0.0000 9.2660 18.3282 27.4847 8.6922 -7.1250 0.0000 -0.0000 -13.4832 58.1925 -4.4038 -0.0000 -0.0000 0.0000 86.6923 -4.5643 0.7503 -18.8282 29.2046 -4.9467 0.0000 0.0000 6.7982 -19.4838 7.0569 -2.4889 7.1250 -0.0000 -0.0000 5.3420 -22.5090 2.9022
-5.8643 17.6137 10.8064 -178.4640 21.9057 -177.2990 0.0000 0.0000 0.0000 -20.1453 -3.9725 -9.0224 2.5230 9.8795 28.5874 0.7829 -10.4968 -16.3531 0.0002 0.0850 0.2335 0.0000 0.0000 0.0000 22.6419 -10.8050 -19.5473 -5.1400 -13.5398 41.4243 -1.0161 12.6203 -18.8137 -1.3532 7.3638 -20.7977 -3.4211 1.1651 12.1562 1.1395 1.2142 0.3026 2.9194 0.7489 -6.6066 -11.3020 -7.7391 -15.9728 8.7773 -8.8096 35.1006 4.3667 -3.2278 16.2147 0.0000 -0.0000 0.0000 -86.6905 6.7457 9.7216 15.8496 -25.3163 -3.5814 -0.0000 -0.0000 9.3766 17.0714 30.2094 8.7838 -7.1250 0.0000 -0.0000 -16.6026 60.5550 -6.3993 0.0000 -0.0000 0.0000 86.9315 -4.4408 0.3408 -18.7531 29.1108 -4.9102 0.0000 0.0000 6.9803 -19.6007 7.1857 -2.5504 7.1250 -0.0000 -0.0000 5.2554 -22.3676 2.8718
-5.8364 17.6313 10.8532 -178.7880 21.3307 -177.3330 0.0000 0.0000 0.0000 -20.2267 -4.0324 -9.1112 2.4555 9.7565 28.1918 0.7146 -11.2304 -15.9194 0.0001 0.0614 0.1687 0.0000 0.0000 0.0000 22.1387 -11.2586 -20.7106 -5.4776 -13.9023 42.8473 -0.9095 13.7504 -18.2936 -1.4715 7.6655 -21.7025 -3.8359 1.1089 12.3671 1.0683 1.0679 0.2670 3.1034 0.6927 -6.7586 -11.4863 -7.7750 -15.8387 9.0507 -8.9066 35.0075 4.5011 -3.2577 16.1822 0.0000 -0.0000 0.0000 -86.4843 6.6880 9.9015 15.9097 -25.3980 -3.6071 -0.0000 -0.0000 9.4837 16.5592 30.7381 8.6413 -7.1250 0.0000 -0.0000 -17.5504 60.9369 -6.9375 0.0000 -0.0000 0.0000 87.1859 -4.3110 0.1080 -18.6486 28.9797 -4.8594 0.0000 0.0000 7.0945 -19.7461 7.2557 -2.5958 7.1250 -0.0000 -0.0000 5.1486 -22.2864 2.8226
